<?xml version="1.0" encoding="UTF-8"?>
<svg xmlns="http://www.w3.org/2000/svg" xmlns:xlink="http://www.w3.org/1999/xlink" width="100pt" height="42pt" viewBox="0 0 100 42" version="1.1">
<g id="surface1">
<path style=" stroke:none;fill-rule:nonzero;fill:rgb(58.823529%,10.196078%,12.156863%);fill-opacity:1;" d="M 97.195312 27.882812 L 96.515625 27.882812 L 96.515625 29.65625 L 95.925781 29.65625 L 95.925781 27.882812 L 95.246094 27.882812 L 95.246094 27.371094 L 97.195312 27.371094 L 97.195312 27.882812 "/>
<path style=" stroke:none;fill-rule:nonzero;fill:rgb(58.823529%,10.196078%,12.156863%);fill-opacity:1;" d="M 97.460938 27.371094 L 98.335938 27.371094 L 98.726562 28.894531 L 98.730469 28.894531 L 99.125 27.371094 L 100 27.371094 L 100 29.65625 L 99.441406 29.65625 L 99.441406 27.921875 L 99.433594 27.921875 L 98.957031 29.65625 L 98.503906 29.65625 L 98.023438 27.921875 L 98.019531 27.921875 L 98.019531 29.65625 L 97.460938 29.65625 L 97.460938 27.371094 "/>
<path style=" stroke:none;fill-rule:nonzero;fill:rgb(58.823529%,10.196078%,12.156863%);fill-opacity:1;" d="M 73.71875 29.527344 C 72.890625 29.878906 72.054688 30.054688 71.210938 30.054688 C 69.878906 30.054688 68.683594 29.824219 67.621094 29.355469 C 66.558594 28.890625 65.660156 28.25 64.929688 27.433594 C 64.199219 26.617188 63.640625 25.65625 63.25 24.550781 C 62.863281 23.449219 62.667969 22.261719 62.667969 20.984375 C 62.667969 19.679688 62.863281 18.464844 63.25 17.347656 C 63.636719 16.226562 64.195312 15.25 64.925781 14.417969 C 65.652344 13.582031 66.550781 12.929688 67.613281 12.457031 C 68.675781 11.980469 69.871094 11.746094 71.203125 11.746094 C 72.09375 11.746094 72.957031 11.878906 73.792969 12.148438 C 74.628906 12.421875 75.382812 12.816406 76.058594 13.339844 C 76.730469 13.867188 77.285156 14.511719 77.722656 15.277344 C 78.164062 16.046875 78.429688 16.925781 78.527344 17.921875 L 74.878906 17.921875 C 74.648438 16.945312 74.210938 16.210938 73.5625 15.71875 C 72.914062 15.230469 72.125 14.988281 71.203125 14.988281 C 70.339844 14.988281 69.609375 15.152344 69.011719 15.488281 C 68.410156 15.824219 67.921875 16.273438 67.550781 16.835938 C 67.175781 17.402344 66.90625 18.042969 66.734375 18.761719 C 66.5625 19.480469 66.480469 20.222656 66.480469 20.992188 C 66.480469 21.726562 66.566406 22.441406 66.734375 23.136719 C 66.90625 23.832031 67.179688 24.457031 67.550781 25.011719 C 67.925781 25.566406 68.414062 26.011719 69.015625 26.347656 C 69.613281 26.683594 70.347656 26.851562 71.207031 26.851562 C 72.476562 26.851562 73.453125 26.527344 74.144531 25.886719 C 74.835938 25.242188 75.238281 24.3125 75.351562 23.09375 L 71.503906 23.09375 L 71.503906 20.21875 L 78.796875 20.21875 L 78.796875 29.664062 L 76.371094 29.664062 L 75.980469 27.683594 C 75.300781 28.5625 74.546875 29.179688 73.71875 29.527344 "/>
<path style=" stroke:none;fill-rule:nonzero;fill:rgb(58.823529%,10.196078%,12.156863%);fill-opacity:1;" d="M 84.992188 12.1875 L 84.992188 26.40625 L 93.464844 26.40625 L 93.464844 29.648438 L 81.179688 29.648438 L 81.179688 12.1875 L 84.992188 12.1875 "/>
<path style=" stroke:none;fill-rule:nonzero;fill:rgb(58.823529%,10.196078%,12.156863%);fill-opacity:1;" d="M 66.964844 31.820312 C 61.128906 35.386719 52.394531 37.417969 42.648438 37.417969 C 25.085938 37.417969 10.847656 30.066406 10.847656 21 C 10.847656 11.933594 25.085938 4.582031 42.648438 4.582031 C 52.429688 4.582031 61.203125 6.648438 67.035156 10.238281 C 60.667969 4.226562 49.253906 0.00390625 36.199219 0 C 16.207031 -0.00390625 0 9.394531 0 20.992188 C 0 32.589844 16.203125 41.996094 36.191406 42 C 49.195312 42 60.582031 37.789062 66.964844 31.820312 "/>
<path style=" stroke:none;fill-rule:nonzero;fill:rgb(58.823529%,10.196078%,12.156863%);fill-opacity:1;" d="M 34.925781 10.828125 L 31.574219 25.40625 L 27.527344 10.828125 L 24.453125 10.828125 L 20.414062 25.40625 L 17.050781 10.828125 L 13.886719 10.828125 L 18.859375 29.832031 L 21.832031 29.832031 L 26.015625 14.90625 L 30.148438 29.832031 L 33.128906 29.832031 L 38.277344 10.828125 L 34.925781 10.828125 "/>
<path style=" stroke:none;fill-rule:nonzero;fill:rgb(58.823529%,10.196078%,12.156863%);fill-opacity:1;" d="M 46.652344 18.828125 C 46.1875 18.167969 45.605469 17.660156 44.921875 17.320312 C 44.21875 16.96875 43.40625 16.792969 42.503906 16.792969 C 41.484375 16.792969 40.570312 16.976562 39.777344 17.34375 C 39.027344 17.6875 38.390625 18.199219 37.878906 18.859375 C 36.929688 20.078125 36.425781 21.796875 36.425781 23.824219 C 36.425781 24.730469 36.554688 25.578125 36.808594 26.347656 C 37.058594 27.121094 37.433594 27.796875 37.917969 28.363281 C 38.933594 29.550781 40.382812 30.179688 42.109375 30.179688 C 43.015625 30.179688 43.757812 30.082031 44.371094 29.886719 C 44.910156 29.71875 45.269531 29.496094 45.5625 29.300781 C 45.9375 29.050781 46.285156 28.742188 46.589844 28.386719 C 46.851562 28.085938 47.082031 27.746094 47.28125 27.382812 C 47.632812 26.734375 47.804688 26.125 47.84375 25.800781 L 47.867188 25.585938 L 45.398438 25.585938 L 45.386719 25.765625 C 45.324219 26.570312 44.269531 28.011719 42.394531 28.011719 C 39.710938 28.011719 39.074219 26.0625 39.03125 24.347656 L 48.007812 24.347656 L 48.007812 24.15625 C 48.007812 23.050781 47.898438 22.039062 47.675781 21.152344 C 47.445312 20.246094 47.105469 19.464844 46.652344 18.828125 Z M 42.21875 19.03125 C 44.207031 19.03125 45.269531 20.105469 45.464844 22.320312 L 39.035156 22.320312 C 39.128906 20.515625 40.546875 19.03125 42.21875 19.03125 "/>
<path style=" stroke:none;fill-rule:nonzero;fill:rgb(58.823529%,10.196078%,12.156863%);fill-opacity:1;" d="M 60.4375 20.652344 C 60.199219 19.886719 59.84375 19.210938 59.390625 18.644531 C 58.917969 18.058594 58.347656 17.601562 57.691406 17.289062 C 57.007812 16.964844 56.242188 16.800781 55.414062 16.800781 C 54.648438 16.8125 53.953125 16.980469 53.339844 17.296875 C 52.835938 17.558594 52.382812 17.929688 51.988281 18.394531 L 51.988281 12.566406 L 49.53125 12.566406 L 49.53125 29.835938 L 51.871094 29.835938 L 51.871094 28.660156 C 52.078125 28.929688 52.339844 29.214844 52.691406 29.464844 C 53.355469 29.945312 54.175781 30.1875 55.132812 30.1875 C 56.160156 30.1875 57.078125 29.957031 57.855469 29.5 C 58.550781 29.097656 59.140625 28.511719 59.605469 27.765625 C 60.011719 27.113281 60.324219 26.347656 60.527344 25.484375 C 60.703125 24.742188 60.792969 23.925781 60.792969 23.128906 C 60.792969 22.246094 60.675781 21.414062 60.4375 20.652344 Z M 58.226562 23.457031 C 58.226562 24.8125 57.957031 25.949219 57.441406 26.742188 C 56.894531 27.589844 56.101562 28.019531 55.085938 28.019531 C 53.613281 28.019531 51.894531 26.984375 51.894531 24.070312 C 51.894531 22.671875 52.066406 21.597656 52.417969 20.785156 C 52.929688 19.609375 53.785156 19.039062 55.039062 19.039062 C 56.371094 19.039062 57.261719 19.5625 57.761719 20.640625 C 58.175781 21.535156 58.226562 22.617188 58.226562 23.457031 "/>
</g>
</svg>
